HIERARCHY
ROOT Hips
{
     OFFSET 18.08120 95.82680 -39.24110
     CHANNELS 6 Xposition Yposition Zposition Zrotation Xrotation Yrotation
     JOINT Spine
     {
          OFFSET 0.00000 11.89050 0.00000
          CHANNELS 3 Zrotation Xrotation Yrotation
          JOINT Spine1
          {
               OFFSET 0.00000 25.65740 0.12766
               CHANNELS 3 Zrotation Xrotation Yrotation
               JOINT HEad
               {
                    OFFSET 0.00000 8.73416 0.01134
                    CHANNELS 3 Zrotation Xrotation Yrotation
                    End Site
                    {
                         OFFSET -0.29000 12.77420 2.51395
                    }
               }
               JOINT LeftShoulder1
               {
                    OFFSET 8.99000 -0.36225 -0.22000
                    CHANNELS 3 Zrotation Xrotation Yrotation
                    JOINT LeftArm
                    {
                         OFFSET 10.28270 -0.00338 0.32212
                         CHANNELS 3 Zrotation Xrotation Yrotation
                         JOINT LeftForeArm
                         {
                              OFFSET 32.76690 0.09914 -1.42434
                              CHANNELS 3 Zrotation Xrotation Yrotation
                              JOINT LeftHand
                              {
                                   OFFSET 27.56430 0.08536 1.02216
                                   CHANNELS 3 Zrotation Xrotation Yrotation
                                   End Site
                                   {
                                        OFFSET 16.74430 -0.60000 1.50291
                                   }
                              }
                         }
                    }
               }
               JOINT RightShoulder
               {
                    OFFSET -8.99000 -0.36225 -0.22000
                    CHANNELS 3 Zrotation Xrotation Yrotation
                    JOINT RightArm
                    {
                         OFFSET -10.28270 -0.00338 0.32212
                         CHANNELS 3 Zrotation Xrotation Yrotation
                         JOINT RightForeArm
                         {
                              OFFSET -32.89710 0.09914 -1.42434
                              CHANNELS 3 Zrotation Xrotation Yrotation
                              JOINT RightHand
                              {
                                   OFFSET -27.49210 0.08536 1.02216
                                   CHANNELS 3 Zrotation Xrotation Yrotation
                                   End Site
                                   {
                                        OFFSET -16.63120 -0.60000 1.50291
                                   }
                              }
                         }
                    }
               }
          }
     }
     JOINT LeftUpLeg
     {
          OFFSET 8.94580 -8.66707 0.10165
          CHANNELS 3 Zrotation Xrotation Yrotation
          JOINT LeftLeg
          {
               OFFSET 0.00000 -44.42270 1.37270
               CHANNELS 3 Zrotation Xrotation Yrotation
               JOINT LeftFoot
               {
                    OFFSET -0.25355 -42.09240 -1.46059
                    CHANNELS 3 Zrotation Xrotation Yrotation
                    JOINT LeftToes
                    {
                         OFFSET -0.04000 -4.41509 8.49910
                         CHANNELS 3 Zrotation Xrotation Yrotation
                         End Site
                         {
                              OFFSET 0.08000 -0.04745 9.77979
                         }
                    }
               }
          }
     }
     JOINT RightUpLeg
     {
          OFFSET -8.94580 -8.66707 0.10165
          CHANNELS 3 Zrotation Xrotation Yrotation
          JOINT RightLeg
          {
               OFFSET 0.00000 -44.42270 1.37270
               CHANNELS 3 Zrotation Xrotation Yrotation
               JOINT RightFoot
               {
                    OFFSET 0.25355 -42.09240 -1.46059
                    CHANNELS 3 Zrotation Xrotation Yrotation
                    JOINT RightToes
                    {
                         OFFSET 0.04000 -4.41509 8.49910
                         CHANNELS 3 Zrotation Xrotation Yrotation
                         End Site
                         {
                              OFFSET -0.08000 -0.13745 9.77979
                         }
                    }
               }
          }
     }
}
MOTION
Frames: 14
Frame Time: 0.01667
18.08120 95.82680 -39.24110 -7.05268 -12.10010 -23.89880 6.33772 7.40051 0.17184 4.14610 15.51750 1.16868 -8.44074 2.10991 6.95435 0.00000 0.00000 0.00000 -98.40730 -37.16430 -60.71240 17.65840 38.11830 -110.12700 29.07830 13.02770 16.91070 10.96410 0.94618 3.96268 81.00490 -10.56050 79.47490 5.79299 32.22820 89.85430 -0.77468 9.89486 10.14700 20.44470 -12.77560 3.98999 -11.39010 22.48160 21.27170 -6.78084 2.65599 0.57892 0.49905 0.90957 -0.59857 -8.54059 -3.09784 -5.41984 8.45453 38.99160 -14.67390 10.00630 -28.17260 1.56385 5.05590 19.38360 -14.87600 
18.09440 95.54140 -38.83660 -7.43059 -12.37530 -23.96440 6.35004 7.53732 0.22508 4.35044 15.78900 1.31368 -8.63050 1.98820 6.93122 0.00000 0.00000 0.00000 -98.40670 -36.43380 -60.28870 17.60000 37.93800 -109.74300 28.74970 13.08740 17.30580 11.09950 0.96669 4.05844 80.70090 -10.11500 79.55560 5.62051 32.11120 88.67820 -0.87077 9.88264 10.31460 20.76770 -13.01090 3.66401 -11.93240 23.87960 22.04100 -6.19022 3.07602 0.54567 1.46002 2.37313 -0.99701 -8.49663 -2.73542 -5.37976 8.50633 39.66280 -14.45730 10.20400 -28.33050 1.61537 4.63513 18.37640 -13.99220 
18.15660 95.26390 -38.40000 -7.83039 -12.64120 -24.20350 6.29660 7.68396 0.29142 4.53824 16.06720 1.47389 -8.75775 1.87716 7.01485 0.00000 0.00000 0.00000 -98.71830 -36.07600 -59.82830 17.63400 38.01090 -109.96500 28.38480 13.17280 17.83390 11.26590 0.98086 4.09682 79.83870 -9.49466 79.52450 5.34119 31.42160 87.84900 -0.81637 9.88946 10.40250 21.25930 -13.47960 3.17524 -12.91540 25.90350 23.33030 -5.58829 3.35230 0.50094 1.23431 2.23856 -1.56945 -8.46309 -2.38959 -5.33818 8.41257 40.32020 -13.97750 10.46150 -28.54100 1.68386 4.34941 17.69790 -13.13720 
18.27840 95.00980 -37.91530 -8.21919 -12.83300 -24.64430 6.20504 7.81142 0.36443 4.67865 16.30240 1.63342 -8.82416 1.78356 7.25999 0.00000 0.00000 0.00000 -98.96520 -35.93240 -59.14310 17.81400 37.86780 -110.82000 27.97110 13.29140 18.54020 11.42730 0.99050 4.10491 79.15130 -8.96401 79.51660 5.06802 30.94920 87.43880 -0.69629 9.90474 10.38550 21.89520 -14.17320 2.67796 -14.19340 28.25800 24.95190 -5.17769 3.76545 0.47752 0.11484 0.88489 -2.11521 -8.46675 -2.12479 -5.27866 8.20595 40.92180 -13.27900 10.67570 -28.75840 1.74570 4.17392 17.29730 -12.36830 
18.46950 94.80450 -37.36060 -8.57060 -12.87010 -25.33380 6.08218 7.89696 0.43584 4.75202 16.45050 1.76989 -8.83633 1.68459 7.73102 0.00000 0.00000 0.00000 -98.71330 -35.84230 -58.02590 18.11530 37.01230 -112.25900 27.47000 13.44420 19.46320 11.58380 0.99858 4.10390 78.76390 -8.50331 79.52150 4.83538 30.82600 87.46560 -0.54724 9.92351 10.27320 22.65460 -15.02980 2.35585 -15.54540 30.65320 26.64190 -5.03234 4.46666 0.48938 -1.53751 -1.22368 -2.52926 -8.52126 -1.99500 -5.19441 7.89987 41.38570 -12.35540 10.77260 -28.90130 1.77828 4.04850 17.00930 -11.74160 
18.73680 94.67890 -36.71300 -8.85215 -12.68680 -26.33990 5.91521 7.92516 0.49948 4.74075 16.47640 1.86535 -8.82522 1.56268 8.52164 0.00000 0.00000 0.00000 -98.06360 -36.07770 -56.50150 18.49480 35.60830 -114.41400 26.88840 13.61390 20.54430 11.73920 1.00317 4.07953 78.58930 -7.97166 79.47380 4.70407 30.97850 87.82120 -0.42472 9.93854 10.11400 23.51290 -15.91730 2.35911 -16.71760 32.82190 28.12070 -5.10316 5.36139 0.53104 -3.44164 -3.71382 -2.82730 -8.64084 -2.03609 -5.06800 7.47679 41.61020 -11.15970 10.73500 -28.86870 1.76780 3.90317 16.63320 -11.23050 
19.07880 94.66250 -35.96220 -9.02423 -12.25560 -27.74290 5.66829 7.89119 0.55159 4.63465 16.36200 1.90459 -8.87097 1.40893 9.75417 0.00000 0.00000 0.00000 -96.78580 -36.68740 -54.48050 18.76000 33.60510 -117.10500 26.22610 13.76020 21.62490 11.84000 0.99658 3.99943 78.49960 -7.19624 79.28920 4.70718 31.27750 88.33800 -0.40337 9.94080 9.97310 24.44070 -16.64940 2.74031 -17.47150 34.50440 29.19590 -5.28758 6.16021 0.58375 -5.24487 -6.07518 -3.10269 -8.83788 -2.27106 -4.85740 6.89674 41.51400 -9.63483 10.64140 -28.60390 1.72439 3.72630 16.14320 -10.73740 
19.48540 94.77210 -35.11690 -9.05668 -11.58970 -29.59980 5.29716 7.80029 0.58467 4.44269 16.10980 1.86404 -9.08516 1.19303 11.53940 0.00000 0.00000 0.00000 -94.58670 -37.65080 -51.94190 18.66480 31.01040 -119.93100 25.44090 13.79290 22.33420 11.77840 0.97207 3.85501 78.41600 -6.04744 78.90970 4.80190 31.60940 88.87360 -0.50573 9.92799 9.88672 25.41100 -17.03290 3.35857 -17.69080 35.42140 29.91900 -5.46279 6.59182 0.62268 -6.47240 -7.67602 -3.30363 -9.10747 -2.71667 -4.54414 6.09876 41.07890 -7.71695 10.68020 -28.15360 1.68900 3.60667 15.82380 -10.20160 
19.94690 94.99840 -34.19610 -8.95597 -10.74300 -31.90650 4.79274 7.66367 0.57718 4.18718 15.74440 1.70489 -9.53708 0.83475 13.92520 0.00000 0.00000 0.00000 -91.26910 -38.97410 -49.03350 18.06030 27.97390 -122.38700 24.33550 13.58660 22.20000 11.49370 0.93391 3.69086 77.97890 -4.36654 78.30190 4.81994 31.52410 89.40300 -0.59539 9.91689 9.81546 26.39970 -16.90270 3.90303 -17.44380 35.31220 30.56930 -5.46262 6.61445 0.62359 -6.71912 -8.10853 -3.12232 -9.42221 -3.36694 -4.15657 5.04523 40.35780 -5.38589 11.08710 -27.63940 1.71482 3.67886 16.11190 -9.69706 
20.46180 95.29750 -33.21610 -8.76986 -9.80176 -34.58820 4.20244 7.49967 0.49727 3.87509 15.31700 1.38852 -10.17950 0.22820 16.85320 0.00000 0.00000 0.00000 -86.96180 -40.88160 -46.16280 17.01640 24.91610 -124.02100 22.59340 13.06950 20.95700 11.04910 0.89865 3.59499 77.46040 -2.37946 77.61510 4.81630 31.40670 89.82470 -0.61560 9.91433 9.71569 27.37100 -16.15200 4.05412 -16.90900 34.04820 31.43820 -5.15777 6.43067 0.57856 -5.79728 -7.23437 -2.28248 -9.76482 -4.19010 -3.72926 3.82365 39.46320 -2.77713 12.00340 -27.14840 1.83037 4.01354 17.23480 -9.42337 
21.03610 95.59850 -32.18790 -8.56415 -8.86721 -37.50830 3.61050 7.33511 0.32354 3.49936 14.90020 0.90604 -10.87120 -0.67511 20.14420 0.00000 0.00000 0.00000 -82.27940 -43.88890 -44.03510 15.83800 22.62030 -124.46900 20.16920 12.37020 18.95220 10.56710 0.88260 3.64668 76.78860 -0.27787 76.99670 4.83202 31.26130 90.11060 -0.51577 9.92613 9.55541 28.25700 -14.77140 3.64818 -16.22560 31.73890 32.58170 -4.63748 6.31429 0.51070 -3.70959 -4.93316 -0.87542 -10.16490 -5.16733 -3.30212 2.65834 38.59260 -0.19161 13.34770 -26.64200 2.01060 4.56994 19.00230 -9.58654 
21.67910 95.82600 -31.12200 -8.39823 -8.03968 -40.47480 3.10935 7.19696 0.06235 3.07594 14.56080 0.29692 -11.46890 -1.77848 23.54470 0.00000 0.00000 0.00000 -78.30040 -48.41270 -43.68460 15.03300 22.05960 -123.35600 17.84620 11.83170 17.35200 10.11420 0.88878 3.85821 75.92880 1.70852 76.59330 4.90079 31.07600 90.26380 -0.33146 9.94756 9.36279 28.94550 -12.88770 2.79468 -15.39240 28.77390 33.67980 -4.18825 6.41194 0.45896 -0.69828 -1.23816 0.65025 -10.68520 -6.33108 -2.95428 1.77936 38.05340 2.02519 14.84740 -25.96690 2.18246 5.24912 20.96740 -10.33910 
22.39720 95.92880 -30.03670 -8.30850 -7.39960 -43.24060 2.76767 7.10055 -0.25607 2.65832 14.33070 -0.36739 -11.91170 -2.80146 26.80120 0.00000 0.00000 0.00000 -76.59500 -54.06310 -46.63740 15.22120 23.94890 -120.19000 16.94500 11.75840 17.56210 9.68473 0.90527 4.15315 74.97290 3.36394 76.49730 4.98377 30.87810 90.31380 -0.13067 9.97048 9.20915 29.30020 -10.77660 1.86790 -14.32930 25.74970 34.18370 -4.03356 6.69406 0.44815 2.51286 3.01198 1.81538 -11.37880 -7.75084 -2.77795 1.31405 38.19910 3.55740 16.25240 -24.95070 2.27064 5.97379 22.73360 -11.82060 
23.18560 95.89280 -28.96880 -8.30558 -6.98937 -45.51610 2.59840 7.04868 -0.60479 2.32113 14.20670 -1.04427 -12.27910 -3.40147 29.72470 0.00000 0.00000 0.00000 -79.41910 -59.45170 -55.06280 16.78670 28.63620 -114.43100 17.99710 12.26310 20.09570 9.24998 0.91445 4.40979 74.12430 4.57498 76.72890 5.01689 30.71890 90.26290 0.04723 9.99081 9.14097 29.23340 -8.81571 1.28523 -13.05530 23.27150 33.73350 -4.16438 7.02652 0.47449 4.77065 6.07930 2.56314 -12.25640 -9.46377 -2.82526 1.28546 39.28630 4.12536 17.51430 -23.47020 2.23846 6.66258 23.98360 -14.05530 
